<?xml version="1.0" encoding="UTF-8" standalone="no"?>
<!-- Created with Inkscape (http://www.inkscape.org/) -->

<svg
   xmlns:dc="http://purl.org/dc/elements/1.1/"
   xmlns:cc="http://creativecommons.org/ns#"
   xmlns:rdf="http://www.w3.org/1999/02/22-rdf-syntax-ns#"
   xmlns:svg="http://www.w3.org/2000/svg"
   xmlns="http://www.w3.org/2000/svg"
   xmlns:sodipodi="http://sodipodi.sourceforge.net/DTD/sodipodi-0.dtd"
   xmlns:inkscape="http://www.inkscape.org/namespaces/inkscape"
   width="594.05475"
   height="598.47992"
   id="svg2"
   version="1.1"
   inkscape:version="0.48.4 r9939"
   sodipodi:docname="relationships.svg">
  <defs
     id="defs4" />
  <sodipodi:namedview
     id="base"
     pagecolor="#ffffff"
     bordercolor="#666666"
     borderopacity="1.0"
     inkscape:pageopacity="0.0"
     inkscape:pageshadow="2"
     inkscape:zoom="1.4"
     inkscape:cx="324.05092"
     inkscape:cy="296.83325"
     inkscape:document-units="px"
     inkscape:current-layer="layer1"
     showgrid="false"
     inkscape:snap-center="false"
     inkscape:object-nodes="false"
     inkscape:snap-object-midpoints="false"
     inkscape:window-width="1274"
     inkscape:window-height="1027"
     inkscape:window-x="640"
     inkscape:window-y="0"
     inkscape:window-maximized="0"
     inkscape:snap-nodes="true"
     inkscape:object-paths="false"
     fit-margin-top="10"
     fit-margin-left="10"
     fit-margin-right="10"
     fit-margin-bottom="10" />
  <metadata
     id="metadata7">
    <rdf:RDF>
      <cc:Work
         rdf:about="">
        <dc:format>image/svg+xml</dc:format>
        <dc:type
           rdf:resource="http://purl.org/dc/dcmitype/StillImage" />
        <dc:title></dc:title>
      </cc:Work>
    </rdf:RDF>
  </metadata>
  <g
     inkscape:label="Layer 1"
     inkscape:groupmode="layer"
     id="layer1"
     transform="translate(-77.057556,-237.87894)">
    <path
       id="path3338"
       style="color:#000000;fill:#ffff00;fill-opacity:1;fill-rule:nonzero;stroke:#000000;stroke-width:2;stroke-linecap:butt;stroke-linejoin:miter;stroke-miterlimit:4;stroke-opacity:1;stroke-dasharray:none;stroke-dashoffset:0;marker:none;visibility:visible;display:inline;overflow:visible;enable-background:accumulate"
       d="m 539.40058,513.02649 c -91.16307,24.42707 -197.51096,26.97745 -290.13316,2.15941 l -2.55082,10.03495 -11.51983,-21.58823 19.98109,-11.69839 -2.55083,10.03494 c 105.75457,28.33685 195.72056,18.22375 282.45459,-5.01656 z"
       inkscape:connector-curvature="0"
       sodipodi:nodetypes="cccccccc"
       inkscape:transform-center-x="-67.08528"
       inkscape:transform-center-y="13.937025" />
    <path
       inkscape:transform-center-y="64.349548"
       inkscape:transform-center-x="-20.729065"
       sodipodi:nodetypes="cccccccc"
       inkscape:connector-curvature="0"
       d="M 479.77187,657.20169 C 438.88454,589.81224 417.20973,497.25173 397.43578,403.42318 l -10.1032,2.26546 13.79539,-20.91783 19.71762,13.40314 -10.1032,2.26545 c 22.57759,107.13196 49.56701,184.42938 83.10637,249.12027 z"
       style="color:#000000;fill:#ffff00;fill-opacity:1;fill-rule:nonzero;stroke:#000000;stroke-width:2;stroke-linecap:butt;stroke-linejoin:miter;stroke-miterlimit:4;stroke-opacity:1;stroke-dasharray:none;stroke-dashoffset:0;marker:none;visibility:visible;display:inline;overflow:visible;enable-background:accumulate"
       id="path3340" />
    <path
       id="path3344"
       style="color:#000000;fill:#ffff00;fill-opacity:1;fill-rule:nonzero;stroke:#000000;stroke-width:2;stroke-linecap:butt;stroke-linejoin:miter;stroke-miterlimit:4;stroke-opacity:1;stroke-dasharray:none;stroke-dashoffset:0;marker:none;visibility:visible;display:inline;overflow:visible;enable-background:accumulate"
       d="m 281.8849,657.07542 c 40.88733,-67.38945 61.9308,-160.07623 81.70475,-253.90478 l 10.1032,2.26546 -13.79539,-20.91783 -19.71762,13.40314 10.1032,2.26545 C 327.70545,507.31882 301.34737,584.74251 267.80801,649.4334 z"
       inkscape:connector-curvature="0"
       sodipodi:nodetypes="cccccccc"
       inkscape:transform-center-x="-20.729065"
       inkscape:transform-center-y="64.349548" />
    <path
       id="path3334"
       style="color:#000000;fill:#ffff00;fill-opacity:1;fill-rule:nonzero;stroke:#000000;stroke-width:2;stroke-linecap:butt;stroke-linejoin:miter;stroke-miterlimit:4;stroke-opacity:1;stroke-dasharray:none;stroke-dashoffset:0;marker:none;visibility:visible;display:inline;overflow:visible;enable-background:accumulate"
       d="m 562.7138,673.41399 c 24.65671,-35.47036 44.53488,-72.37993 44.5342,-116.26396 l 10.32101,0.82679 -16.59196,-18.77698 -17.64362,16.0353 10.321,0.82679 c -0.19303,40.44333 -21.57192,74.97675 -44.75854,108.07412 z"
       inkscape:connector-curvature="0"
       sodipodi:nodetypes="cccccccc"
       inkscape:transform-center-x="7.237435"
       inkscape:transform-center-y="67.940515" />
    <path
       inkscape:transform-center-y="13.937025"
       inkscape:transform-center-x="-67.08528"
       sodipodi:nodetypes="cccccccc"
       inkscape:connector-curvature="0"
       d="m 454.16444,754.01125 c -41.53248,11.88079 -84.07883,17.49006 -125.61131,3.3175 l -2.55082,10.03495 -10.64492,-22.27188 19.10618,-11.01474 -2.55083,10.03494 c 38.33868,12.87808 79.12085,5.08115 117.93274,-6.17465 z"
       style="color:#000000;fill:#ffff00;fill-opacity:1;fill-rule:nonzero;stroke:#000000;stroke-width:2;stroke-linecap:butt;stroke-linejoin:miter;stroke-miterlimit:4;stroke-opacity:1;stroke-dasharray:none;stroke-dashoffset:0;marker:none;visibility:visible;display:inline;overflow:visible;enable-background:accumulate"
       id="path3336" />
    <path
       inkscape:transform-center-y="67.940515"
       inkscape:transform-center-x="-7.237435"
       sodipodi:nodetypes="cccccccc"
       inkscape:connector-curvature="0"
       d="M 197.11491,674.60579 C 172.4582,639.13543 154.85288,600.27426 154.85356,556.39023 l -10.32101,0.82679 16.59196,-18.77698 17.64362,16.0353 -10.321,0.82679 c 0.19303,40.44333 19.29907,76.92835 42.48569,110.02572 z"
       style="color:#000000;fill:#ffff00;fill-opacity:1;fill-rule:nonzero;stroke:#000000;stroke-width:2;stroke-linecap:butt;stroke-linejoin:miter;stroke-miterlimit:4;stroke-opacity:1;stroke-dasharray:none;stroke-dashoffset:0;marker:none;visibility:visible;display:inline;overflow:visible;enable-background:accumulate"
       id="path3332" />
    <path
       inkscape:transform-center-x="209.23244"
       transform="matrix(0.30901699,-0.95105651,0.95105651,0.30901699,-487.95883,1461.2585)"
       sodipodi:type="arc"
       style="color:#000000;fill:#ffb2b2;fill-opacity:1;fill-rule:nonzero;stroke:#535353;stroke-width:3.00000001999999988;stroke-linecap:butt;stroke-linejoin:miter;stroke-miterlimit:4;stroke-opacity:1;stroke-dasharray:none;stroke-dashoffset:0;marker:none;visibility:visible;display:inline;overflow:visible;enable-background:accumulate"
       id="path3131"
       sodipodi:cx="1148.1244"
       sodipodi:cy="322.49466"
       sodipodi:rx="68.099213"
       sodipodi:ry="68.099213"
       d="m 1216.2236,322.49466 c 0,37.61016 -30.4891,68.09921 -68.0992,68.09921 -37.6102,0 -68.0992,-30.48905 -68.0992,-68.09921 0,-37.61016 30.489,-68.09921 68.0992,-68.09921 37.6101,0 68.0992,30.48905 68.0992,68.09921 z"
       inkscape:transform-center-y="-67.983703" />
    <path
       transform="matrix(0.30901699,0.95105651,-0.95105651,0.30901699,543.92729,-722.60388)"
       sodipodi:type="arc"
       style="color:#000000;fill:#9dfeff;fill-opacity:1;fill-rule:nonzero;stroke:#535353;stroke-width:3.00000001999999988;stroke-linecap:butt;stroke-linejoin:miter;stroke-miterlimit:4;stroke-opacity:1;stroke-dasharray:none;stroke-dashoffset:0;marker:none;visibility:visible;display:inline;overflow:visible;enable-background:accumulate"
       id="path3143"
       sodipodi:cx="1148.1244"
       sodipodi:cy="322.49466"
       sodipodi:rx="68.099213"
       sodipodi:ry="68.099213"
       d="m 1216.2236,322.49466 c 0,37.61016 -30.4891,68.09921 -68.0992,68.09921 -37.6102,0 -68.0992,-30.48905 -68.0992,-68.09921 0,-37.61016 30.489,-68.09921 68.0992,-68.09921 37.6101,0 68.0992,30.48905 68.0992,68.09921 z"
       inkscape:transform-center-y="-67.983734"
       inkscape:transform-center-x="-209.23238" />
    <path
       sodipodi:type="arc"
       style="color:#000000;fill:#7fff7f;fill-opacity:1;fill-rule:nonzero;stroke:#535353;stroke-width:3;stroke-linecap:butt;stroke-linejoin:miter;stroke-miterlimit:4;stroke-opacity:1;stroke-dasharray:none;stroke-dashoffset:0;marker:none;visibility:visible;display:inline;overflow:visible;enable-background:accumulate"
       id="path3127"
       sodipodi:cx="1148.1244"
       sodipodi:cy="322.49466"
       sodipodi:rx="68.099213"
       sodipodi:ry="68.099213"
       d="m 1216.2236,322.49466 c 0,37.61016 -30.4891,68.09921 -68.0992,68.09921 -37.6102,0 -68.0992,-30.48905 -68.0992,-68.09921 0,-37.61016 30.489,-68.09921 68.0992,-68.09921 37.6101,0 68.0992,30.48905 68.0992,68.09921 z"
       inkscape:transform-center-y="-220"
       transform="matrix(-1,0,0,1,1529.0159,-5.5273064)" />
    <path
       transform="matrix(0.80901699,-0.58778525,-0.58778525,-0.80901699,-229.09028,1650.7053)"
       sodipodi:type="arc"
       style="color:#000000;fill:#e89fff;fill-opacity:1;fill-rule:nonzero;stroke:#535353;stroke-width:3.00000000999999994;stroke-linecap:butt;stroke-linejoin:miter;stroke-miterlimit:4;stroke-opacity:1;stroke-dasharray:none;stroke-dashoffset:0;marker:none;visibility:visible;display:inline;overflow:visible;enable-background:accumulate"
       id="path3135"
       sodipodi:cx="1148.1244"
       sodipodi:cy="322.49466"
       sodipodi:rx="68.099213"
       sodipodi:ry="68.099213"
       d="m 1216.2236,322.49466 c 0,37.61016 -30.4891,68.09921 -68.0992,68.09921 -37.6102,0 -68.0992,-30.48905 -68.0992,-68.09921 0,-37.61016 30.489,-68.09921 68.0992,-68.09921 37.6101,0 68.0992,30.48905 68.0992,68.09921 z"
       inkscape:transform-center-y="177.9837"
       inkscape:transform-center-x="129.31273" />
    <path
       inkscape:transform-center-x="-129.31271"
       transform="matrix(0.80901699,0.58778525,0.58778525,-0.80901699,-866.83096,301.00418)"
       sodipodi:type="arc"
       style="color:#000000;fill:#ffdbb8;fill-opacity:1;fill-rule:nonzero;stroke:#535353;stroke-width:3.00000000999999994;stroke-linecap:butt;stroke-linejoin:miter;stroke-miterlimit:4;stroke-opacity:1;stroke-dasharray:none;stroke-dashoffset:0;marker:none;visibility:visible;display:inline;overflow:visible;enable-background:accumulate"
       id="path3139"
       sodipodi:cx="1148.1244"
       sodipodi:cy="322.49466"
       sodipodi:rx="68.099213"
       sodipodi:ry="68.099213"
       d="m 1216.2236,322.49466 c 0,37.61016 -30.4891,68.09921 -68.0992,68.09921 -37.6102,0 -68.0992,-30.48905 -68.0992,-68.09921 0,-37.61016 30.489,-68.09921 68.0992,-68.09921 37.6101,0 68.0992,30.48905 68.0992,68.09921 z"
       inkscape:transform-center-y="177.98373" />
    <text
       xml:space="preserve"
       style="font-size:16px;font-style:normal;font-weight:normal;text-align:center;line-height:125%;letter-spacing:0px;word-spacing:0px;text-anchor:middle;fill:#000000;fill-opacity:1;stroke:none;font-family:Sans"
       x="250.34831"
       y="722.56628"
       id="text3001"
       sodipodi:linespacing="125%"><tspan
         sodipodi:role="line"
         id="tspan3003"
         x="250.34831"
         y="722.56628"
         style="font-size:28px;font-weight:bold">Histogrammar</tspan></text>
    <text
       sodipodi:linespacing="125%"
       id="text3005"
       y="725.38959"
       x="509.58902"
       style="font-size:16px;font-style:normal;font-weight:normal;text-align:center;line-height:125%;letter-spacing:0px;word-spacing:0px;text-anchor:middle;fill:#000000;fill-opacity:1;stroke:none;font-family:Sans"
       xml:space="preserve"><tspan
         style="font-size:28px;font-weight:bold;letter-spacing:0.63px"
         y="725.38959"
         x="509.90402"
         id="tspan3007"
         sodipodi:role="line">Femtocode</tspan></text>
    <text
       xml:space="preserve"
       style="font-size:16px;font-style:normal;font-weight:normal;text-align:center;line-height:125%;letter-spacing:0px;word-spacing:0px;text-anchor:middle;fill:#000000;fill-opacity:1;stroke:none;font-family:Sans"
       x="589.78894"
       y="476.46213"
       id="text3009"
       sodipodi:linespacing="125%"><tspan
         sodipodi:role="line"
         id="tspan3011"
         x="589.78894"
         y="476.46213"
         style="font-size:28px;font-weight:bold">Scope</tspan></text>
    <text
       sodipodi:linespacing="125%"
       id="text3013"
       y="326.05844"
       x="379.91483"
       style="font-size:16px;font-style:normal;font-weight:normal;text-align:center;line-height:125%;letter-spacing:0px;word-spacing:0px;text-anchor:middle;fill:#000000;fill-opacity:1;stroke:none;font-family:Sans"
       xml:space="preserve"><tspan
         style="font-size:28px;font-weight:bold"
         y="326.05844"
         x="379.91483"
         id="tspan3015"
         sodipodi:role="line">root4j</tspan></text>
    <text
       xml:space="preserve"
       style="font-size:16px;font-style:normal;font-weight:normal;text-align:center;line-height:125%;letter-spacing:0px;word-spacing:0px;text-anchor:middle;fill:#000000;fill-opacity:1;stroke:none;font-family:Sans"
       x="171.22157"
       y="479.42212"
       id="text3017"
       sodipodi:linespacing="125%"><tspan
         sodipodi:role="line"
         id="tspan3019"
         x="171.66158"
         y="479.42212"
         style="font-size:28px;font-weight:bold;letter-spacing:0.88px">Scikit-HEP</tspan></text>
    <rect
       style="color:#000000;fill:#ffffff;fill-opacity:1;fill-rule:nonzero;stroke:none;stroke-width:2;marker:none;visibility:visible;display:inline;overflow:visible;enable-background:accumulate"
       id="rect4147"
       width="61.428574"
       height="58.571438"
       x="140.71428"
       y="573.26538" />
    <text
       xml:space="preserve"
       style="font-size:16px;font-style:normal;font-weight:normal;text-align:center;line-height:110.00000238%;letter-spacing:0px;word-spacing:0px;text-anchor:middle;fill:#000000;fill-opacity:1;stroke:none;font-family:Sans"
       x="171.29974"
       y="589.36517"
       id="text3107"
       sodipodi:linespacing="110%"
       inkscape:transform-center-x="0.55292014"
       inkscape:transform-center-y="-0.52874451"><tspan
         sodipodi:role="line"
         id="tspan3109"
         x="171.29974"
         y="589.36517">Histogrammar will be</tspan><tspan
         sodipodi:role="line"
         x="171.29974"
         y="606.96515"
         id="tspan3111">the aggregation</tspan><tspan
         sodipodi:role="line"
         x="171.29974"
         y="624.56519"
         id="tspan3113">layer of Scikit-HEP</tspan></text>
    <text
       xml:space="preserve"
       style="font-size:16px;font-style:normal;font-weight:normal;text-align:center;line-height:110.00000238%;letter-spacing:0px;word-spacing:0px;text-anchor:middle;fill:#000000;fill-opacity:1;stroke:none;font-family:Sans"
       x="378.93488"
       y="790.93231"
       id="text3147"
       sodipodi:linespacing="110%"
       inkscape:transform-center-x="-2.2614903"
       inkscape:transform-center-y="-1.7975968"><tspan
         sodipodi:role="line"
         id="tspan3149"
         x="378.93488"
         y="790.93231">Histogrammar will use</tspan><tspan
         sodipodi:role="line"
         x="378.93488"
         y="808.53229"
         id="tspan3151">Femtocode for user-</tspan><tspan
         sodipodi:role="line"
         x="378.93488"
         y="826.13232"
         id="tspan3153">defined functions</tspan></text>
    <rect
       y="573.26538"
       x="560.71429"
       height="58.571438"
       width="61.428574"
       id="rect4167"
       style="color:#000000;fill:#ffffff;fill-opacity:1;fill-rule:nonzero;stroke:none;stroke-width:2;marker:none;visibility:visible;display:inline;overflow:visible;enable-background:accumulate" />
    <text
       xml:space="preserve"
       style="font-size:16px;font-style:normal;font-weight:normal;text-align:center;line-height:110.00000238%;letter-spacing:0px;word-spacing:0px;text-anchor:middle;fill:#000000;fill-opacity:1;stroke:none;font-family:Sans"
       x="589.76453"
       y="589.36517"
       id="text3155"
       sodipodi:linespacing="110%"><tspan
         sodipodi:role="line"
         x="589.76453"
         y="589.36517"
         id="tspan3159">Femtocode will be</tspan><tspan
         sodipodi:role="line"
         x="589.76453"
         y="606.96515"
         id="tspan3163">the query language</tspan><tspan
         sodipodi:role="line"
         x="589.76453"
         y="624.56519"
         id="tspan3165">for Scope</tspan></text>
    <rect
       style="color:#000000;fill:#ffffff;fill-opacity:1;fill-rule:nonzero;stroke:none;stroke-width:2;marker:none;visibility:visible;display:inline;overflow:visible;enable-background:accumulate"
       id="rect4128"
       width="126.42857"
       height="60.714287"
       x="320"
       y="418.68259" />
    <text
       xml:space="preserve"
       style="font-size:16px;font-style:normal;font-weight:normal;text-align:center;line-height:110.00000238%;letter-spacing:0px;word-spacing:0px;text-anchor:middle;fill:#000000;fill-opacity:1;stroke:none;font-family:Sans"
       x="378.93488"
       y="435.85379"
       id="text3213"
       sodipodi:linespacing="110%"><tspan
         sodipodi:role="line"
         x="378.93488"
         y="435.85379"
         id="tspan3219">Histogrammar and Femtocode</tspan><tspan
         sodipodi:role="line"
         x="378.93488"
         y="453.4538"
         id="tspan3295">would allow HEP-like</tspan><tspan
         sodipodi:role="line"
         x="378.93488"
         y="471.0538"
         id="tspan3223">analysis in Java/Spark</tspan></text>
    <path
       sodipodi:type="arc"
       style="color:#000000;fill:#ffffff;fill-opacity:1;fill-rule:nonzero;stroke:none;stroke-width:2;marker:none;visibility:visible;display:inline;overflow:visible;enable-background:accumulate"
       id="path4124"
       sodipodi:cx="379.28571"
       sodipodi:cy="526.64789"
       sodipodi:rx="89.285713"
       sodipodi:ry="34.285713"
       d="m 468.57142,526.64789 a 89.285713,34.285713 0 1 1 -178.57143,0 89.285713,34.285713 0 1 1 178.57143,0 z"
       transform="translate(0,-1.9999752)" />
    <text
       sodipodi:linespacing="110%"
       id="text3255"
       y="513.01276"
       x="379.73492"
       style="font-size:16px;font-style:normal;font-weight:normal;text-align:center;line-height:110.00000238%;letter-spacing:0px;word-spacing:0px;text-anchor:middle;fill:#000000;fill-opacity:1;stroke:none;font-family:Sans"
       xml:space="preserve"><tspan
         y="513.01276"
         x="379.73492"
         id="tspan3257"
         sodipodi:role="line">Scope will</tspan><tspan
         id="tspan3259"
         y="530.61273"
         x="379.73492"
         sodipodi:role="line">yield data for use in</tspan><tspan
         id="tspan3261"
         y="548.21277"
         x="379.73492"
         sodipodi:role="line">Scikit-HEP</tspan></text>
    <path
       sodipodi:type="arc"
       style="color:#000000;fill:#ffffff;fill-opacity:0;fill-rule:nonzero;stroke:#000000;stroke-width:2;stroke-linecap:butt;stroke-linejoin:miter;stroke-miterlimit:4;stroke-opacity:1;stroke-dasharray:none;stroke-dashoffset:0;marker:none;visibility:visible;display:inline;overflow:visible;enable-background:accumulate"
       id="path3271"
       sodipodi:cx="361.42856"
       sodipodi:cy="520.2193"
       sodipodi:rx="220"
       sodipodi:ry="220"
       d="m 581.42856,520.2193 c 0,121.50264 -98.49736,220 -220,220 -121.50265,0 -220,-98.49736 -220,-220 0,-121.50265 98.49735,-220 220,-220 121.50264,0 220,98.49735 220,220 z"
       transform="translate(-721.02004,18.234755)" />
    <path
       transform="translate(-1507.7159,-4.0406102)"
       inkscape:transform-center-y="-220"
       d="m 1216.2236,322.49466 c 0,37.61016 -30.4891,68.09921 -68.0992,68.09921 -37.6102,0 -68.0992,-30.48905 -68.0992,-68.09921 0,-37.61016 30.489,-68.09921 68.0992,-68.09921 37.6101,0 68.0992,30.48905 68.0992,68.09921 z"
       sodipodi:ry="68.099213"
       sodipodi:rx="68.099213"
       sodipodi:cy="322.49466"
       sodipodi:cx="1148.1244"
       id="path3273"
       style="color:#000000;fill:#ffffff;fill-opacity:0;fill-rule:nonzero;stroke:#000000;stroke-width:2;stroke-linecap:butt;stroke-linejoin:miter;stroke-miterlimit:4;stroke-opacity:1;stroke-dasharray:none;stroke-dashoffset:0;marker:none;visibility:visible;display:inline;overflow:visible;enable-background:accumulate"
       sodipodi:type="arc" />
    <path
       inkscape:transform-center-y="-67.983703"
       d="m 1216.2236,322.49466 c 0,37.61016 -30.4891,68.09921 -68.0992,68.09921 -37.6102,0 -68.0992,-30.48905 -68.0992,-68.09921 0,-37.61016 30.489,-68.09921 68.0992,-68.09921 37.6101,0 68.0992,30.48905 68.0992,68.09921 z"
       sodipodi:ry="68.099213"
       sodipodi:rx="68.099213"
       sodipodi:cy="322.49466"
       sodipodi:cx="1148.1244"
       id="path3275"
       style="color:#000000;fill:#ffffff;fill-opacity:0;fill-rule:nonzero;stroke:#000000;stroke-width:2;stroke-linecap:butt;stroke-linejoin:miter;stroke-miterlimit:4;stroke-opacity:1;stroke-dasharray:none;stroke-dashoffset:0;marker:none;visibility:visible;display:inline;overflow:visible;enable-background:accumulate"
       sodipodi:type="arc"
       transform="matrix(0.30901699,-0.95105651,0.95105651,0.30901699,-1230.3246,1462.7452)"
       inkscape:transform-center-x="209.23244" />
    <path
       inkscape:transform-center-y="177.9837"
       d="m 1216.2236,322.49466 c 0,37.61016 -30.4891,68.09921 -68.0992,68.09921 -37.6102,0 -68.0992,-30.48905 -68.0992,-68.09921 0,-37.61016 30.489,-68.09921 68.0992,-68.09921 37.6101,0 68.0992,30.48905 68.0992,68.09921 z"
       sodipodi:ry="68.099213"
       sodipodi:rx="68.099213"
       sodipodi:cy="322.49466"
       sodipodi:cx="1148.1244"
       id="path3277"
       style="color:#000000;fill:#ffffff;fill-opacity:0;fill-rule:nonzero;stroke:#000000;stroke-width:2;stroke-linecap:butt;stroke-linejoin:miter;stroke-miterlimit:4;stroke-opacity:1;stroke-dasharray:none;stroke-dashoffset:0;marker:none;visibility:visible;display:inline;overflow:visible;enable-background:accumulate"
       sodipodi:type="arc"
       transform="matrix(-0.80901699,-0.58778525,0.58778525,-0.80901699,250.39027,1652.192)"
       inkscape:transform-center-x="129.31273" />
    <path
       inkscape:transform-center-x="-1.4197429e-05"
       transform="matrix(-1,0,0,-1,788.5329,1080.9487)"
       sodipodi:type="arc"
       style="color:#000000;fill:#ffffff;fill-opacity:0;fill-rule:nonzero;stroke:#000000;stroke-width:2;stroke-linecap:butt;stroke-linejoin:miter;stroke-miterlimit:4;stroke-opacity:1;stroke-dasharray:none;stroke-dashoffset:0;marker:none;visibility:visible;display:inline;overflow:visible;enable-background:accumulate"
       id="path3279"
       sodipodi:cx="1148.1244"
       sodipodi:cy="322.49466"
       sodipodi:rx="68.099213"
       sodipodi:ry="68.099213"
       d="m 1216.2236,322.49466 c 0,37.61016 -30.4891,68.09921 -68.0992,68.09921 -37.6102,0 -68.0992,-30.48905 -68.0992,-68.09921 0,-37.61016 30.489,-68.09921 68.0992,-68.09921 37.6101,0 68.0992,30.48905 68.0992,68.09921 z"
       inkscape:transform-center-y="219.99998" />
    <path
       inkscape:transform-center-y="177.98371"
       d="m 1216.2236,322.49466 c 0,37.61016 -30.4891,68.09921 -68.0992,68.09921 -37.6102,0 -68.0992,-30.48905 -68.0992,-68.09921 0,-37.61016 30.489,-68.09921 68.0992,-68.09921 37.6101,0 68.0992,30.48905 68.0992,68.09921 z"
       sodipodi:ry="68.099213"
       sodipodi:rx="68.099213"
       sodipodi:cy="322.49466"
       sodipodi:cx="1148.1244"
       id="path3281"
       style="color:#000000;fill:#ffffff;fill-opacity:0;fill-rule:nonzero;stroke:#000000;stroke-width:2;stroke-linecap:butt;stroke-linejoin:miter;stroke-miterlimit:4;stroke-opacity:1;stroke-dasharray:none;stroke-dashoffset:0;marker:none;visibility:visible;display:inline;overflow:visible;enable-background:accumulate"
       sodipodi:type="arc"
       transform="matrix(-0.80901699,0.58778525,-0.58778525,-0.80901699,888.131,302.49084)"
       inkscape:transform-center-x="-129.31276" />
    <path
       inkscape:transform-center-x="129.31276"
       transform="matrix(0.80901699,-0.58778525,0.58778525,0.80901699,-1607.314,774.41723)"
       sodipodi:type="arc"
       style="color:#000000;fill:#ffffff;fill-opacity:0;fill-rule:nonzero;stroke:#000000;stroke-width:2;stroke-linecap:butt;stroke-linejoin:miter;stroke-miterlimit:4;stroke-opacity:1;stroke-dasharray:none;stroke-dashoffset:0;marker:none;visibility:visible;display:inline;overflow:visible;enable-background:accumulate"
       id="path3283"
       sodipodi:cx="1148.1244"
       sodipodi:cy="322.49466"
       sodipodi:rx="68.099213"
       sodipodi:ry="68.099213"
       d="m 1216.2236,322.49466 c 0,37.61016 -30.4891,68.09921 -68.0992,68.09921 -37.6102,0 -68.0992,-30.48905 -68.0992,-68.09921 0,-37.61016 30.489,-68.09921 68.0992,-68.09921 37.6101,0 68.0992,30.48905 68.0992,68.09921 z"
       inkscape:transform-center-y="-177.98374" />
    <path
       inkscape:transform-center-x="-209.23241"
       transform="matrix(-0.30901699,0.95105651,-0.95105651,-0.30901699,511.1415,-385.83708)"
       sodipodi:type="arc"
       style="color:#000000;fill:#ffffff;fill-opacity:0;fill-rule:nonzero;stroke:#000000;stroke-width:2;stroke-linecap:butt;stroke-linejoin:miter;stroke-miterlimit:4;stroke-opacity:1;stroke-dasharray:none;stroke-dashoffset:0;marker:none;visibility:visible;display:inline;overflow:visible;enable-background:accumulate"
       id="path3285"
       sodipodi:cx="1148.1244"
       sodipodi:cy="322.49466"
       sodipodi:rx="68.099213"
       sodipodi:ry="68.099213"
       d="m 1216.2236,322.49466 c 0,37.61016 -30.4891,68.09921 -68.0992,68.09921 -37.6102,0 -68.0992,-30.48905 -68.0992,-68.09921 0,-37.61016 30.489,-68.09921 68.0992,-68.09921 37.6101,0 68.0992,30.48905 68.0992,68.09921 z"
       inkscape:transform-center-y="67.983713" />
    <path
       inkscape:transform-center-y="-67.983749"
       d="m 1216.2236,322.49466 c 0,37.61016 -30.4891,68.09921 -68.0992,68.09921 -37.6102,0 -68.0992,-30.48905 -68.0992,-68.09921 0,-37.61016 30.489,-68.09921 68.0992,-68.09921 37.6101,0 68.0992,30.48905 68.0992,68.09921 z"
       sodipodi:ry="68.099213"
       sodipodi:rx="68.099213"
       sodipodi:cy="322.49466"
       sodipodi:cx="1148.1244"
       id="path3287"
       style="color:#000000;fill:#ffffff;fill-opacity:0;fill-rule:nonzero;stroke:#000000;stroke-width:2;stroke-linecap:butt;stroke-linejoin:miter;stroke-miterlimit:4;stroke-opacity:1;stroke-dasharray:none;stroke-dashoffset:0;marker:none;visibility:visible;display:inline;overflow:visible;enable-background:accumulate"
       sodipodi:type="arc"
       transform="matrix(0.30901699,0.95105651,-0.95105651,0.30901699,-198.43843,-721.1172)"
       inkscape:transform-center-x="-209.2324" />
    <path
       inkscape:transform-center-x="209.23242"
       transform="matrix(-0.30901699,-0.95105651,0.95105651,-0.30901699,-520.74466,1798.0253)"
       sodipodi:type="arc"
       style="color:#000000;fill:#ffffff;fill-opacity:0;fill-rule:nonzero;stroke:#000000;stroke-width:2;stroke-linecap:butt;stroke-linejoin:miter;stroke-miterlimit:4;stroke-opacity:1;stroke-dasharray:none;stroke-dashoffset:0;marker:none;visibility:visible;display:inline;overflow:visible;enable-background:accumulate"
       id="path3289"
       sodipodi:cx="1148.1244"
       sodipodi:cy="322.49466"
       sodipodi:rx="68.099213"
       sodipodi:ry="68.099213"
       d="m 1216.2236,322.49466 c 0,37.61016 -30.4891,68.09921 -68.0992,68.09921 -37.6102,0 -68.0992,-30.48905 -68.0992,-68.09921 0,-37.61016 30.489,-68.09921 68.0992,-68.09921 37.6101,0 68.0992,30.48905 68.0992,68.09921 z"
       inkscape:transform-center-y="67.983739" />
    <path
       inkscape:transform-center-x="-129.31273"
       transform="matrix(0.80901699,0.58778525,-0.58778525,0.80901699,-969.57334,-575.28391)"
       sodipodi:type="arc"
       style="color:#000000;fill:#ffffff;fill-opacity:0;fill-rule:nonzero;stroke:#000000;stroke-width:2;stroke-linecap:butt;stroke-linejoin:miter;stroke-miterlimit:4;stroke-opacity:1;stroke-dasharray:none;stroke-dashoffset:0;marker:none;visibility:visible;display:inline;overflow:visible;enable-background:accumulate"
       id="path3291"
       sodipodi:cx="1148.1244"
       sodipodi:cy="322.49466"
       sodipodi:rx="68.099213"
       sodipodi:ry="68.099213"
       d="m 1216.2236,322.49466 c 0,37.61016 -30.4891,68.09921 -68.0992,68.09921 -37.6102,0 -68.0992,-30.48905 -68.0992,-68.09921 0,-37.61016 30.489,-68.09921 68.0992,-68.09921 37.6101,0 68.0992,30.48905 68.0992,68.09921 z"
       inkscape:transform-center-y="-177.98372" />
    <path
       id="path3309"
       style="color:#000000;fill:#ffffff;fill-opacity:0;fill-rule:nonzero;stroke:#000000;stroke-width:2;stroke-linecap:butt;stroke-linejoin:miter;stroke-miterlimit:4;stroke-opacity:1;stroke-dasharray:none;stroke-dashoffset:0;marker:none;visibility:visible;display:inline;overflow:visible;enable-background:accumulate"
       d="m -302.28815,520.51686 0,81.31728 10.35406,0 -17.17259,17.1726 -17.17259,-17.1726 10.35406,0 0,-81.31728"
       inkscape:connector-curvature="0"
       sodipodi:nodetypes="ccccccc" />
    <path
       id="path3309-5"
       style="color:#000000;fill:#ffffff;fill-opacity:0;fill-rule:nonzero;stroke:#ff0000;stroke-width:2;stroke-linecap:butt;stroke-linejoin:miter;stroke-miterlimit:4;stroke-opacity:1;stroke-dasharray:none;stroke-dashoffset:0;marker:none;visibility:visible;display:inline;overflow:visible;enable-background:accumulate"
       d="m -428.19609,758.02648 c 41.53248,11.88079 80.9221,15.97483 122.45458,1.80227 l 2.55082,10.03495 12.41269,-21.7668 -20.87395,-11.51982 2.55083,10.03494 c -38.33868,12.87808 -75.96412,6.59638 -114.77601,-4.65942 z"
       inkscape:connector-curvature="0"
       sodipodi:nodetypes="cccccccc"
       inkscape:transform-center-x="67.08528"
       inkscape:transform-center-y="13.937025" />
  </g>
</svg>
